<?xml version="1.0" standalone="no"?><!DOCTYPE svg PUBLIC "-//W3C//DTD SVG 1.1//EN" "http://www.w3.org/Graphics/SVG/1.1/DTD/svg11.dtd"><svg t="1612616387508" class="icon" viewBox="0 0 1122 1024" version="1.1" xmlns="http://www.w3.org/2000/svg" p-id="11730" xmlns:xlink="http://www.w3.org/1999/xlink" width="219.140625" height="200"><defs><style type="text/css"></style></defs><path d="M416.760229 284.545536l-98.970389-95.555043c-10.23804-6.826693-10.23804-23.89276 0-34.129468 10.236707-10.23804 27.301441-10.23804 37.539481 0l98.965058 92.143697c10.243373 10.236707 10.243373 27.301441 0 37.539481-10.23804 6.828026-27.296109 10.23804-37.53415 0.001333M753.477113 284.545536c-10.23804 10.236707-27.296109 6.826693-37.534149 0-10.243373-10.23804-10.243373-27.302774 0-37.539481l98.965058-92.143697c10.23804-10.23804 27.302774-10.23804 37.539481 0 10.23804 10.236707 10.23804 27.301441 0 34.129468l-98.97039 95.55371M559.936825 264.466713l-2.414205-137.549672c-2.412871-12.067024 9.654152-24.134047 24.132714-24.134048 14.477229 0 26.544253 12.065691 26.544253 26.544253l4.823077 135.134134c0.005332 14.481228-12.061691 26.549585-26.544253 26.544253-12.065691-2.411538-26.53892-12.061691-26.541586-26.53892M952.417701 617.56846c0.081318-1.070462 0.081318-2.144923 0-3.215384L814.676066 353.581656a22.963605 22.963605 0 0 0-21.122624-14.239941H689.601339v45.935207h86.508775l119.374485 214.382966H676.933097c-11.677765-0.085317-21.555874 8.610352-22.956939 20.201467 0 38.03672-30.835431 68.869485-68.869484 68.869484-38.03672 0-68.869485-30.832765-68.869485-68.869484-1.403731-11.591115-11.281841-20.288117-22.958272-20.201467H274.728749l119.37715-214.382966h295.684737v-45.935207h-309.460767a22.951607 22.951607 0 0 0-24.792588 14.239941L217.796979 613.894497a21.64919 21.64919 0 0 0 0 4.589788 21.83582 21.83582 0 0 0 0 4.132542V806.272341a68.866818 68.866818 0 0 0 68.869485 68.869485h596.881753a68.870818 68.870818 0 0 0 68.870817-68.869485V622.616827a22.275736 22.275736 0 0 0-0.001333-5.048367zM394.105899 385.276922h297.019149v-45.935207H380.329869m526.173954 466.929293a22.95294 22.95294 0 0 1-22.956939 22.956939H286.666464c-12.678907 0-22.958272-10.2767-22.958273-22.956939V645.5751h212.123399c14.994463 47.602889 59.134015 79.982024 109.047127 79.982024 49.907781 0 94.052664-32.379136 109.044462-79.982024h212.581977v160.695908z" fill="#93959E" p-id="11731"></path></svg>