<?xml version="1.0" standalone="no"?><!DOCTYPE svg PUBLIC "-//W3C//DTD SVG 1.1//EN" "http://www.w3.org/Graphics/SVG/1.1/DTD/svg11.dtd"><svg t="1612617679581" class="icon" viewBox="0 0 1024 1024" version="1.1" xmlns="http://www.w3.org/2000/svg" p-id="51812" xmlns:xlink="http://www.w3.org/1999/xlink" width="200" height="200"><defs><style type="text/css"></style></defs><path d="M967.538939 408.116245c-6.943347-26.378449-31.649959-45.259755-73.299592-56.361796-4.717714-1.389714-9.712327-2.497306-14.994286-3.615347-10.266122-2.220408-19.983673 4.446041-22.204081 14.712163a18.923102 18.923102 0 0 0 14.712163 22.214531c4.440816 0.835918 8.881633 1.938286 12.768653 3.056326 26.932245 7.21502 43.31102 17.763265 46.915918 29.701225v0.276898c5.558857 20.547918-22.204082 54.141388-79.396571 91.339755-1.661388-22.214531-5.276735-44.700735-11.378939-66.910041a356.085551 356.085551 0 0 0-190.171428-229.041632 356.738612 356.738612 0 0 0-245.984654-22.773551c-152.696163 40.813714-255.420082 175.46449-263.47102 325.381224-32.757551 19.435102-59.407673 39.152327-79.396571 58.864327-11.384163 11.102041-20.265796 22.486204-26.932245 34.147265-6.661224 11.661061-10.553469 24.152816-10.55347 36.926694 0 4.994612 0.564245 9.994449 1.943511 14.712163v0.271673c12.49698 45.808327 79.683918 65.797224 171.854367 67.186939a360.991347 360.991347 0 0 0 97.724082 100.226612 356.059429 356.059429 0 0 0 201.278693 62.464c30.819265 0 61.910204-3.88702 92.170449-12.214857 152.696163-40.80849 255.69698-175.736163 263.471021-325.93502 78.848-47.192816 127.153633-98.277878 115.210449-144.091429-0.266449-0.261224-0.266449-0.538122-0.266449-0.538122z m-905.351837 242.928326c0-0.282122 0-0.282122 0 0a18.808163 18.808163 0 0 1-0.830694-5.276734c0-4.722939 1.666612-10.830367 5.830531-18.599184 7.491918-13.327673 23.316898-30.265469 46.085224-48.028735a439.766204 439.766204 0 0 1 28.039837-19.717224c1.666612 22.214531 5.276735 44.700735 11.384163 67.186939a336.195918 336.195918 0 0 0 23.875919 63.58204c-67.740735-3.615347-108.554449-18.609633-114.38498-39.147102z m516.952816 191.007347a318.046041 318.046041 0 0 1-262.635102-44.977632 320.501551 320.501551 0 0 1-73.576489-69.961143c88.565551-3.88702 193.23298-21.378612 292.341551-48.028735 99.395918-26.650122 198.786612-63.582041 277.352489-104.667428-15.830204 124.656327-104.944327 233.210776-233.482449 267.634938z m-53.310694-199.058285c-122.98449 33.034449-227.934041 46.915918-306.499918 48.028734-13.045551-23.322122-23.322122-48.028735-30.260245-74.130285-45.531429-169.633959 55.525878-344.816327 225.43151-390.347755A320.276898 320.276898 0 0 1 496.953469 215.719184a318.124408 318.124408 0 0 1 137.707102 31.373061c84.11951 40.254694 146.034939 114.938776 170.182531 204.894041 7.220245 26.373224 10.553469 53.023347 10.830367 79.396571-68.848327 38.316408-166.854531 78.576327-289.844245 111.616z" p-id="51813"></path><path d="M437.540571 300.39249C359.251592 320.10449 296.228571 377.850776 269.296327 454.201469c-3.328 9.717551 1.671837 20.547918 11.384163 23.875919 1.938286 0.835918 4.163918 1.107592 6.112653 1.107592a18.755918 18.755918 0 0 0 17.763265-12.491756c22.768327-64.689633 76.068571-113.272163 142.147919-129.933061 9.994449-2.497306 16.101878-12.768653 13.599346-22.768326-2.492082-9.984-12.763429-16.091429-22.763102-13.599347z m-144.363102 241.266939c-0.276898-10.276571-9.163755-18.599184-19.435102-18.050613-10.271347 0.276898-18.322286 9.158531-18.045387 19.435102 0.271673 8.604735 1.107592 17.491592 2.497306 26.096327a18.797714 18.797714 0 0 0 18.599183 16.101877c0.835918 0 1.938286 0 2.76898-0.276898 10.276571-1.389714 17.219918-11.102041 15.830204-21.378612-1.149388-7.262041-1.886041-14.581551-2.215184-21.927183z m559.699592-398.680817c-39.972571 0-72.735347 32.485878-72.735347 72.740572a72.636082 72.636082 0 0 0 72.740572 72.735347 72.636082 72.636082 0 0 0 72.735347-72.735347 72.636082 72.636082 0 0 0-72.735347-72.740572z m0 112.44147c-21.927184 0-39.700898-17.763265-39.700898-39.706123 0-21.932408 17.76849-39.700898 39.706123-39.700898a39.690449 39.690449 0 0 1 39.700898 39.685225v0.020898c0.276898 21.932408-17.773714 39.700898-39.706123 39.700898zM312.330449 928.391837l-16.655673-5.553633-5.553633-16.655673c-1.389714-3.88702-4.722939-6.389551-8.881633-6.389551-4.163918 0-7.497143 2.502531-8.881632 6.389551l-5.558858 16.655673-16.655673 5.553633c-3.88702 1.389714-6.384327 4.722939-6.384327 8.881632 0 4.163918 2.497306 7.497143 6.384327 8.881633l16.655673 5.558857 5.553633 16.655674c1.389714 3.88702 4.722939 6.384327 8.881633 6.384326 4.163918 0 7.497143-2.497306 8.881632-6.384326l5.558858-16.655674 16.655673-5.553632c3.88702-1.389714 6.384327-4.722939 6.384327-8.881633 0-4.163918-2.497306-7.497143-6.384327-8.881633zM475.021061 46.362122l16.660898 5.553633 5.553633 16.660898c1.389714 3.88702 4.717714 6.384327 8.881632 6.384327 4.163918 0 7.491918-2.497306 8.881633-6.384327l5.553633-16.660898 16.660898-5.553633c3.88702-1.389714 6.384327-4.717714 6.384326-8.881632 0-4.163918-2.497306-7.491918-6.384326-8.881633L520.55249 23.04l-5.553633-16.660898C513.609143 2.497306 510.281143 0 506.117224 0c-4.163918 0-7.491918 2.497306-8.881632 6.384327L491.676735 23.045224l-16.660898 5.553633c-3.88702 1.389714-6.384327 4.717714-6.384327 8.881633 0 4.163918 2.497306 7.491918 6.384327 8.881632zM38.034286 424.771918c1.389714 3.88702 4.722939 6.384327 8.881632 6.384327 4.169143 0 7.497143-2.497306 8.886858-6.384327l7.77404-23.59902 23.604245-7.774041c3.88702-1.389714 6.384327-4.722939 6.384327-8.881633 0-4.169143-2.497306-7.497143-6.384327-8.886857l-23.604245-7.77404-7.77404-23.604245c-1.389714-3.88702-4.717714-6.384327-8.881633-6.384327-4.163918 0-7.497143 2.497306-8.881633 6.384327L30.25502 367.856327l-23.59902 7.77404c-3.88702 1.389714-6.384327 4.717714-6.384327 8.881633 0 4.163918 2.497306 7.497143 6.384327 8.881633l23.59902 7.779265 7.774041 23.59902z m177.408-302.889796a18.876082 18.876082 0 1 0 37.752163 0.015674v-0.015674a18.876082 18.876082 0 1 0-37.752163-0.015673v0.015673zM477.80049 1002.788571a18.876082 18.876082 0 1 0 37.757388 0.015674v-0.015674a18.876082 18.876082 0 1 0-37.757388-0.010449v0.010449z m506.117224-431.156244a18.881306 18.881306 0 1 0 37.773062 0 18.881306 18.881306 0 1 0-37.773062 0zM646.598531 121.887347v-0.005225a18.881306 18.881306 0 0 0 37.762612 0.010449 18.881306 18.881306 0 0 0-37.762612-0.005224z m303.171918 647.147102l-23.59902-7.774041-7.774041-23.59902c-1.389714-3.88702-4.722939-6.384327-8.881633-6.384327-4.169143 0-7.497143 2.497306-8.886857 6.384327l-7.774041 23.59902-23.604245 7.774041c-3.88702 1.389714-6.384327 4.722939-6.384326 8.881633 0 4.169143 2.497306 7.497143 6.384326 8.886857l23.604245 7.774041 7.774041 23.604244c1.389714 3.88702 4.717714 6.384327 8.881633 6.384327 4.163918 0 7.497143-2.497306 8.881632-6.384327l7.779266-23.604244 23.59902-7.774041c3.88702-1.389714 6.384327-4.717714 6.384327-8.881633 0-4.163918-2.779429-7.497143-6.384327-8.881633z" p-id="51814"></path></svg>