<?xml version="1.0" standalone="no"?><!DOCTYPE svg PUBLIC "-//W3C//DTD SVG 1.1//EN" "http://www.w3.org/Graphics/SVG/1.1/DTD/svg11.dtd"><svg t="1612762444213" class="icon" viewBox="0 0 1068 1024" version="1.1" xmlns="http://www.w3.org/2000/svg" p-id="4876" xmlns:xlink="http://www.w3.org/1999/xlink" width="208.59375" height="200"><defs><style type="text/css"></style></defs><path d="M398.469565 289.391304c-8.904348 0-17.808696-6.678261-17.808695-17.808695 0-8.904348 6.678261-17.808696 17.808695-17.808696h229.286957c8.904348 0 17.808696 6.678261 17.808695 17.808696 0 8.904348-6.678261 17.808696-17.808695 17.808695H398.469565zM398.469565 476.382609c-8.904348 0-17.808696-6.678261-17.808695-17.808696s6.678261-17.808696 17.808695-17.808696h229.286957c8.904348 0 17.808696 6.678261 17.808695 17.808696s-6.678261 17.808696-17.808695 17.808696H398.469565zM189.217391 663.373913c-8.904348 0-17.808696-6.678261-17.808695-17.808696s6.678261-17.808696 17.808695-17.808695h229.286957c8.904348 0 17.808696 6.678261 17.808695 17.808695s-6.678261 17.808696-17.808695 17.808696H189.217391zM189.217391 289.391304c-8.904348 0-17.808696-6.678261-17.808695-17.808695 0-8.904348 6.678261-17.808696 17.808695-17.808696h82.365218c8.904348 0 17.808696 6.678261 17.808695 17.808696 0 8.904348-6.678261 17.808696-17.808695 17.808695H189.217391zM189.217391 476.382609c-8.904348 0-17.808696-6.678261-17.808695-17.808696s6.678261-17.808696 17.808695-17.808696h82.365218c8.904348 0 17.808696 6.678261 17.808695 17.808696s-6.678261 17.808696-17.808695 17.808696H189.217391zM1012.869565 950.53913l-109.078261-109.07826c26.713043-35.617391 42.295652-77.913043 42.295653-124.66087 0-115.756522-93.495652-209.252174-209.252174-209.252174s-209.252174 93.495652-209.252174 209.252174 93.495652 209.252174 209.252174 209.252174c55.652174 0 106.852174-22.26087 144.695652-57.878261l109.078261 109.078261c6.678261 6.678261 17.808696 6.678261 24.486956 0 4.452174-8.904348 4.452174-20.034783-2.226087-26.713044zM736.834783 890.434783c-97.947826 0-175.86087-77.913043-175.86087-175.86087s77.913043-175.86087 175.86087-175.86087 175.86087 77.913043 175.860869 175.86087-80.13913 175.86087-175.860869 175.86087z" p-id="4877"></path><path d="M438.53913 857.043478h-400.695652c-8.904348 0-17.808696-6.678261-17.808695-17.808695v-801.391305c2.226087-6.678261 8.904348-15.582609 17.808695-15.582608h739.06087c8.904348 0 17.808696 6.678261 17.808695 17.808695v367.304348c0 8.904348-6.678261 17.808696-17.808695 17.808696s-17.808696-6.678261-17.808696-17.808696V55.652174H55.652174V823.652174h382.886956c8.904348 0 17.808696 6.678261 17.808696 17.808696s-8.904348 15.582609-17.808696 15.582608z" p-id="4878"></path></svg>