<?xml version="1.0" standalone="no"?><!DOCTYPE svg PUBLIC "-//W3C//DTD SVG 1.1//EN" "http://www.w3.org/Graphics/SVG/1.1/DTD/svg11.dtd"><svg t="1582361867400" class="icon" viewBox="0 0 1024 1024" version="1.1" xmlns="http://www.w3.org/2000/svg" p-id="99664" xmlns:xlink="http://www.w3.org/1999/xlink" width="200" height="200"><defs><style type="text/css"></style></defs><path d="M435.19 542.17c17.19-0.01 34.37-0.02 51.56 0-0.03 90.3 0 180.6-0.02 270.89-30.24 0.11-60.48 0.02-90.72 0.05-9.72-0.26-19.6 0.85-29.17-1.39-20.26-4.13-38.01-16.82-50.58-32.97-9.6-11.89-15.14-26.61-17.89-41.52-2.75-15.57-2.43-31.62 0.14-47.18 4.96-17.12 13.87-33.28 26.57-45.88 10.61-10.6 23.83-18.51 38.13-22.99 5.76-1.77 11.71-3.29 17.78-3.24 18.06 0.04 36.13 0.01 54.2 0.01 0.03-25.26 0.02-50.52 0-75.78m-57.26 122.77c-10.42 4.8-20.16 12.42-25.12 23-3.44 9.27-5.13 19.19-5.36 29.07-0.07 12 3.55 24.09 10.37 33.98 8.03 11.54 21.97 18.99 36.11 18.39 13.8-0.04 27.59 0.01 41.38-0.02 0.03-35.88 0.03-71.76 0-107.64-15.44-0.04-30.88 0.02-46.31-0.04-3.94-0.08-7.52 1.81-11.07 3.26zM514.57 621.96c17.12-0.01 34.25-0.01 51.38 0 0.05 42.04-0.01 84.08 0.03 126.12 0.01 5.32 1.53 10.84 5.16 14.86 3.97 4.42 10.03 6.42 15.86 6.43 18.1 0 36.21 0 54.31-0.01 0.02-49.11 0.04-98.22-0.01-147.32 17.14-0.18 34.29-0.07 51.44-0.06-0.01 63.72 0 127.43-0.01 191.14-41.57 0.11-83.14 0.04-124.71 0.04-13.19-1.19-26.42-5.94-36.4-14.84-11.22-10.06-17.71-25.25-17.07-40.32 0.03-45.34-0.01-90.69 0.02-136.04z" fill="#FCFBFF" p-id="99665"></path><path d="M412.48 94.66c15.78-2.71 32.26 1.48 45.52 10.25 20.69 13.6 34.35 35.7 42.19 58.79 12.01 36.17 11.31 76.59-2.42 112.19-6.93 17.48-17.27 33.98-31.76 46.18-11.7 9.91-26.53 16.62-42.02 16.95-15.34 0.53-30.38-5.28-42.46-14.53-19.26-14.87-31.84-36.91-38.89-59.91-10.28-34.31-9.34-72.04 3.21-105.63 7.65-20.06 19.82-38.99 37.37-51.74 8.66-6.28 18.68-10.8 29.26-12.55zM643.49 112.61c11.1-2.39 22.48 0.66 32.48 5.5 14.18 6.85 26.22 17.57 35.95 29.86 13.57 17.31 22.99 38.09 25.86 59.97 2.21 15.22-0.25 30.66-4.51 45.31-5.11 17.67-12.87 34.65-23.39 49.77-9.22 13.17-20.71 25.04-34.7 33.16-12.94 7.54-28.1 11.4-43.09 10.39-18.32-1.2-36.86-7.49-50.38-20.25-13.63-12.64-21.35-30.42-24.9-48.4-3.76-19.1-3.65-38.79-1.39-58.06 2.47-17.07 9.68-33.09 18.43-47.82 9.24-15.25 20.6-29.34 34.25-40.88 10.26-8.6 22.12-15.88 35.39-18.55zM228.46 276.66c16.76-3.08 34.36 0.44 49.19 8.66 21.9 12.08 38.87 31.97 49.8 54.26 4.42 9.23 7.82 19.07 8.75 29.32 2.73 25.68 2.19 52.14-5.21 77.05-5.01 16.92-13.89 33.05-27.27 44.77-16.54 14.68-38.89 21.8-60.78 22.1-18.31 0.27-36.49-6.53-50.26-18.57-18.19-15.76-29.49-38.16-35.42-61.2-3.89-15.64-5.7-32.06-3.13-48.06 3.75-26.74 11.58-53.55 26.97-76.02 11.04-16.12 27.77-29.03 47.36-32.31zM767.52 335.74c19.97-2.49 41.04 0.23 58.82 10.05 16.43 8.92 29.31 23.47 37.94 39.92 7.15 13.72 12.09 28.76 13.4 44.22 0.72 22.08 1.08 44.44-3.57 66.16-3.24 15.18-8.9 30.19-18.71 42.39-9.25 11.71-22.45 20.08-36.83 23.91-14.45 3.99-29.65 4.09-44.49 2.87-17.64-1.66-35.57-6.64-49.64-17.81-12.37-9.64-20.72-23.67-25.24-38.55-6.14-19.97-6.73-41.11-6.37-61.84 0.63-21.71 3.67-43.73 12.37-63.78 6.48-14.99 16.92-28.65 31.1-37.06 9.44-5.83 20.27-9.06 31.22-10.48zM499.41 415.69c20.16-2.41 40.91 1.16 59.25 9.84 28.48 13.38 50.5 37.34 67.3 63.46 20.93 30.19 45.45 57.73 71.16 83.91 24.45 24.62 50.02 48.15 76.77 70.26 4.46 3.81 9.26 7.24 13.33 11.49 20.23 20.68 32.63 48.57 35.25 77.31 2.91 30.46-4.42 61.07-16.75 88.79-9.26 20.36-25.21 37.56-44.95 48.11-27.3 14.76-59.13 18.3-89.71 17.19-29.75-1.23-59.28-6.69-87.66-15.66-34.49-9.34-70.83-11.99-106.32-7.74-16.54 1.83-32.58 6.45-49 8.99-37 6.07-74.69 8.12-112.12 5.66-31.09-0.94-61.06-16.65-80.44-40.84-11.99-14.74-20.34-32.15-25.86-50.25-5.16-16.87-8.32-34.54-7.45-52.23 0.85-20.88 7.05-41.38 17.16-59.63 15.04-27.4 37.81-49.67 62.44-68.52 7.02-5.61 14.85-10.33 20.82-17.13 11.61-10.76 23.85-20.82 35.26-31.79 21.51-20.35 41.36-42.62 57.59-67.45 4.66-7 8.59-14.49 13.77-21.14 21.67-28.26 54.51-48.63 90.16-52.63m-64.22 126.48c0.02 25.26 0.03 50.52 0 75.78-18.07 0-36.14 0.03-54.2-0.01-6.07-0.05-12.02 1.47-17.78 3.24-14.3 4.48-27.52 12.39-38.13 22.99-12.7 12.6-21.61 28.76-26.57 45.88-2.57 15.56-2.89 31.61-0.14 47.18 2.75 14.91 8.29 29.63 17.89 41.52 12.57 16.15 30.32 28.84 50.58 32.97 9.57 2.24 19.45 1.13 29.17 1.39 30.24-0.03 60.48 0.06 90.72-0.05 0.02-90.29-0.01-180.59 0.02-270.89-17.19-0.02-34.37-0.01-51.56 0m79.38 79.79c-0.03 45.35 0.01 90.7-0.02 136.04-0.64 15.07 5.85 30.26 17.07 40.32 9.98 8.9 23.21 13.65 36.4 14.84 41.57 0 83.14 0.07 124.71-0.04 0.01-63.71 0-127.42 0.01-191.14-17.15-0.01-34.3-0.12-51.44 0.06 0.05 49.1 0.03 98.21 0.01 147.32-18.1 0.01-36.21 0.01-54.31 0.01-5.83-0.01-11.89-2.01-15.86-6.43-3.63-4.02-5.15-9.54-5.16-14.86-0.04-42.04 0.02-84.08-0.03-126.12-17.13-0.01-34.26-0.01-51.38 0z" fill="#306CFF" p-id="99666"></path><path d="M377.93 664.94c3.55-1.45 7.13-3.34 11.07-3.26 15.43 0.06 30.87 0 46.31 0.04 0.03 35.88 0.03 71.76 0 107.64-13.79 0.03-27.58-0.02-41.38 0.02-14.14 0.6-28.08-6.85-36.11-18.39-6.82-9.89-10.44-21.98-10.37-33.98 0.23-9.88 1.92-19.8 5.36-29.07 4.96-10.58 14.7-18.2 25.12-23z" fill="#306CFF" p-id="99667"></path></svg>