<?xml version="1.0" standalone="no"?><!DOCTYPE svg PUBLIC "-//W3C//DTD SVG 1.1//EN" "http://www.w3.org/Graphics/SVG/1.1/DTD/svg11.dtd"><svg t="1582359492092" class="icon" viewBox="0 0 1024 1024" version="1.1" xmlns="http://www.w3.org/2000/svg" p-id="39120" xmlns:xlink="http://www.w3.org/1999/xlink" width="200" height="200"><defs><style type="text/css"></style></defs><path d="M199.6 924.048a241 241 0 0 0 275.256 19.632 158.176 158.176 0 0 1 100.2-20.96 297.32 297.32 0 0 0 294.104-443.168 157.192 157.192 0 0 1-10.24-134.536 224.952 224.952 0 1 0-425.824-15.04 75.616 75.616 0 0 1-21.408 77.64q-2.56 2.32-5.056 4.704a99.56 99.56 0 0 1-124.08 8.12 160.696 160.696 0 0 0-230.856 58.576 160.528 160.528 0 0 0 18.808 178.384 171.784 171.784 0 0 1 40.48 97.392 240.272 240.272 0 0 0 88.608 169.256z" fill="#ABDBF5" opacity=".5" p-id="39121"></path><path d="M984 528a8 8 0 0 1-8-8v-8a8 8 0 0 1 16 0v8a8 8 0 0 1-8 8zM984 568a8 8 0 0 1-8-8v-8a8 8 0 0 1 16 0v8a8 8 0 0 1-8 8zM968 544h-8a8 8 0 0 1 0-16h8a8 8 0 0 1 0 16zM1008 544h-8a8 8 0 0 1 0-16h8a8 8 0 0 1 0 16zM594.344 67.712a8 8 0 0 1-5.656-13.656l5.656-5.656a8 8 0 0 1 11.312 11.312L600 65.368a7.976 7.976 0 0 1-5.656 2.344zM566.056 96a8 8 0 0 1-5.656-13.656l5.656-5.656A8 8 0 0 1 577.368 88l-5.656 5.656a7.976 7.976 0 0 1-5.656 2.344zM571.712 67.712a7.976 7.976 0 0 1-5.656-2.344l-5.656-5.656a8 8 0 0 1 11.312-11.312l5.656 5.656a8 8 0 0 1-5.656 13.656zM600 96a7.976 7.976 0 0 1-5.656-2.344L588.688 88A8 8 0 0 1 600 76.688l5.656 5.656A8 8 0 0 1 600 96zM760 1000a32 32 0 1 1 32-32 32.04 32.04 0 0 1-32 32z m0-48a16 16 0 1 0 16 16 16.016 16.016 0 0 0-16-16z" fill="#647FA1" opacity=".65" p-id="39122"></path><path d="M72 808a8 8 0 0 1-8-8v-48a8 8 0 0 1 16 0v48a8 8 0 0 1-8 8z" fill="#6E85A1" opacity=".65" p-id="39123"></path><path d="M96 784H48a8 8 0 0 1 0-16h48a8 8 0 0 1 0 16z" fill="#6E85A1" opacity=".65" p-id="39124"></path><path d="M436.272 227.2m-56 0a56 56 0 1 0 112 0 56 56 0 1 0-112 0Z" fill="#FFFFFF" opacity=".65" p-id="39125"></path><path d="M436.56 291.76h-0.08a63.224 63.224 0 0 1-45.12-18.72 62.408 62.408 0 0 1-14.56-22.32 7.864 7.864 0 0 1 0.16-6.16 8.312 8.312 0 0 1 4.48-4.24 8.184 8.184 0 0 1 10.32 4.64 47.848 47.848 0 0 0 55.44 29.6 8.216 8.216 0 0 1 9.6 6.08 7.968 7.968 0 0 1-6.08 9.52 59.728 59.728 0 0 1-14.16 1.6z m40-16.72a7.744 7.744 0 0 1-5.6-2.32 7.952 7.952 0 0 1-2.4-5.6 8.192 8.192 0 0 1 2.24-5.68 47.832 47.832 0 0 0 13.76-33.68 47.2 47.2 0 0 0-9.84-29.12 8.016 8.016 0 0 1 1.52-11.2 8.104 8.104 0 0 1 11.2 1.52 64.048 64.048 0 0 1-5.2 83.68 8 8 0 0 1-5.68 2.4z m-20.96-91.92a7.784 7.784 0 0 1-2.64-0.48h-0.16a49.76 49.76 0 0 0-11.76-2.64 8 8 0 0 1-5.44-2.88 7.632 7.632 0 0 1-1.76-5.84 7.936 7.936 0 0 1 8.72-7.2 63.32 63.32 0 0 1 15.76 3.52 7.912 7.912 0 0 1 5.28 7.44 8.24 8.24 0 0 1-0.48 2.8 8.048 8.048 0 0 1-7.52 5.28z" fill="#647FA1" opacity=".65" p-id="39126"></path><path d="M315.384 278v-67.976l-57.168-57.168a73.64 73.64 0 0 1-5.024-100.072 72.008 72.008 0 0 1 105.104-3.496l58.912 58.912h67.984a54.384 54.384 0 0 1 38.456 15.92L536 136.48 343.664 328.816l-12.352-12.352a54.384 54.384 0 0 1-15.928-38.456z" fill="#DAE5F0" opacity=".65" p-id="39127"></path><path d="M381.28 144.816l-58.912-58.912a71.944 71.944 0 0 0-77.504-15.92 68.992 68.992 0 0 1 5.248-10.696 72 72 0 0 1 88.256 10.616l58.912 58.912-16 16z" fill="#FFFFFF" opacity=".5" p-id="39128"></path><path d="M381.28 144.816l16-16 59.984 8a54.384 54.384 0 0 1 38.456 15.928l12.352 12.36-24 24c-9.56-28-46.664-41.232-102.8-44.288z" fill="#FFFFFF" opacity=".5" p-id="39129"></path><path d="M478.8 201.68a8 8 0 0 1-5.648-13.656l22.624-22.632a8 8 0 0 1 11.312 11.312l-22.624 22.632a7.976 7.976 0 0 1-5.656 2.344z m45.256-45.256a8 8 0 0 1-5.656-13.656l6.28-6.288-6.688-6.696a46.08 46.08 0 0 0-32.8-13.584H417.2a8 8 0 0 1-5.656-2.344l-10.56-10.56a8 8 0 0 1 11.304-11.32l8.224 8.224h64.664a61.968 61.968 0 0 1 44.12 18.272l12.352 12.352a8 8 0 0 1 0 11.312l-11.944 11.944a7.976 7.976 0 0 1-5.656 2.344zM315.384 286a8 8 0 0 1-8-8v-64.664l-54.824-54.832a84.456 84.456 0 0 1-24.64-59.28 78.224 78.224 0 0 1 19.256-51.72 80.288 80.288 0 0 1 59.728-27.312h0.056a8 8 0 0 1 0.048 16A64.256 64.256 0 0 0 259.2 58.064a62.208 62.208 0 0 0-15.28 41.152 68.344 68.344 0 0 0 19.952 47.976l57.168 57.176a8 8 0 0 1 2.344 5.656v67.976a8 8 0 0 1-8 8zM400.272 80a54.448 54.448 0 0 1-12.072-1.352 8 8 0 0 1 3.552-15.6A38.496 38.496 0 0 0 400.272 64a8 8 0 0 1 0 16z m-37.024-17.76a7.976 7.976 0 0 1-5.656-2.344l-4.952-4.96a63.968 63.968 0 0 0-18.08-12.712 8 8 0 0 1 6.792-14.48 79.92 79.92 0 0 1 22.6 15.88l4.96 4.96a8 8 0 0 1-5.664 13.656zM384.48 296a8 8 0 0 1-5.656-13.656l48-48a8 8 0 0 1 11.312 11.312l-48 48a7.976 7.976 0 0 1-5.656 2.344z" fill="#647FA1" opacity=".65" p-id="39130"></path><path d="M315.384 220.2a8 8 0 0 1-5.656-13.656l20-20a8 8 0 0 1 11.312 11.312l-20 20a7.976 7.976 0 0 1-5.656 2.344zM367.384 168.2a8 8 0 0 1-5.656-13.656l52-52a8 8 0 0 1 11.312 11.312l-52 52a7.976 7.976 0 0 1-5.656 2.344zM235.656 203.928a8 8 0 0 1-5.656-13.656l32-32a8 8 0 0 1 11.312 11.312l-32 32a7.976 7.976 0 0 1-5.656 2.344zM79.728 512a8 8 0 0 1-7.424-5.024L27.856 395.896a8 8 0 0 1 4.656-10.48l34.24-12.64a8 8 0 0 1 10.32 4.848l18.2 51.72a8 8 0 1 1-15.096 5.312l-15.504-44.056-18.912 6.984 41.392 103.44A8.008 8.008 0 0 1 79.728 512z" fill="#647FA1" opacity=".65" p-id="39131"></path><path d="M42.256 382.352a8 8 0 0 1-5.464-13.84L153.536 259.12a8 8 0 1 1 10.944 11.672L47.728 380.192a7.96 7.96 0 0 1-5.472 2.16zM184 296a8 8 0 0 1-7-11.864l15.608-28.272a8 8 0 0 1 14.008 7.736l-15.6 28.264a8 8 0 0 1-7.016 4.136z m-1.632-44.928a8 8 0 0 1-5.472-13.84l16.424-15.384a8 8 0 0 1 10.376-0.48l7.504 5.84a8 8 0 0 1-9.832 12.632l-2.104-1.64-11.424 10.712a7.976 7.976 0 0 1-5.472 2.16z" fill="#647FA1" opacity=".65" p-id="39132"></path><path d="M56 392m-32 0a32 32 0 1 0 64 0 32 32 0 1 0-64 0Z" fill="#EEF6FF" opacity=".65" p-id="39133"></path><path d="M56 432a40.224 40.224 0 0 1-32.024-16.024 8 8 0 0 1 12.8-9.6 24 24 0 1 0 36.2-31.344 8 8 0 0 1 11.312-11.312A40 40 0 0 1 56 432z m-29.992-43.184a8.008 8.008 0 0 1-7.496-10.8 39.808 39.808 0 0 1 29-25.12 8 8 0 1 1 3.384 15.648 24.184 24.184 0 0 0-17.384 15.064 8 8 0 0 1-7.504 5.2zM186.648 205.928a7.976 7.976 0 0 1-5.392-2.088l-29.8-27.2a8 8 0 1 1 10.792-11.824l29.8 27.2a8 8 0 0 1-5.4 13.92z" fill="#647FA1" opacity=".65" p-id="39134"></path><path d="M211.664 219.904m-32 0a32 32 0 1 0 64 0 32 32 0 1 0-64 0Z" fill="#EEF6FF" opacity=".65" p-id="39135"></path><path d="M211.672 259.904a40.216 40.216 0 0 1-32.024-16.024 8 8 0 1 1 12.8-9.6 24 24 0 1 0 36.192-31.344 8 8 0 0 1 11.312-11.312 40 40 0 0 1-28.28 68.28zM181.68 216.72a8.008 8.008 0 0 1-7.496-10.8 39.808 39.808 0 0 1 29-25.112 8 8 0 0 1 3.376 15.64 24.184 24.184 0 0 0-17.384 15.064 8 8 0 0 1-7.496 5.2z" fill="#647FA1" opacity=".65" p-id="39136"></path><path d="M749.864 232a212.448 212.448 0 0 0 10.128-66.12C760 123.504 736.72 96 708 96S656 124 656 165.88A212.456 212.456 0 0 0 666.128 232z" fill="#B3E1E8" opacity=".65" p-id="39137"></path><path d="M724.048 99.08A43.424 43.424 0 0 0 707.992 96c-28.72 0-52 28-52 69.88A212.464 212.464 0 0 0 666.128 232h32A212.464 212.464 0 0 1 688 165.88c0-33.76 15.136-58.48 36.048-66.8z" fill="#FFFFFF" opacity=".5" p-id="39138"></path><path d="M749.856 240H666.128a8 8 0 0 1-7.576-5.424A219.392 219.392 0 0 1 648 165.88C648 120.76 673.24 88 708 88s60 32.752 60 77.88a219.352 219.352 0 0 1-10.56 68.696 8 8 0 0 1-7.576 5.424z m-77.88-16h72.032A208.04 208.04 0 0 0 752 165.88C752 130.024 733.488 104 708 104S664 130.024 664 165.88A208.128 208.128 0 0 0 671.976 224z" fill="#647FA1" opacity=".65" p-id="39139"></path><path d="M667.992 140a7.952 7.952 0 0 1-4.432-1.344l-12-8a8 8 0 0 1 8.88-13.312l12 8a8 8 0 0 1-4.448 14.656zM690 114.48a7.976 7.976 0 0 1-5.824-2.504l-9.896-10.48a8 8 0 1 1 11.632-10.984l9.904 10.48a8 8 0 0 1-5.816 13.496zM726 114.48a8 8 0 0 1-5.44-13.864l10.592-9.792a8 8 0 0 1 10.864 11.736l-10.584 9.792a7.968 7.968 0 0 1-5.44 2.136zM660 184a7.968 7.968 0 0 1-2.536-0.408l-12-4a8 8 0 0 1 5.064-15.184l12 4a8 8 0 0 1-2.536 15.6zM656 224a8 8 0 0 1-2.536-15.592l12-4a8 8 0 0 1 5.064 15.184l-12 4A7.968 7.968 0 0 1 656 224zM752 152a8 8 0 0 1-4.44-14.656l12-8a8 8 0 0 1 8.88 13.312l-12 8A7.952 7.952 0 0 1 752 152zM764 176h-8a8 8 0 0 1 0-16h8a8 8 0 0 1 0 16zM692 204a7.976 7.976 0 0 1-5.656-2.344l-4-4a8 8 0 0 1 11.312-11.312l4 4A8 8 0 0 1 692 204zM692 156a7.976 7.976 0 0 1-5.656-2.344l-4-4a8 8 0 0 1 11.312-11.32l4 4A8 8 0 0 1 692 156zM724 180a8 8 0 0 1-5.656-13.656l4-4a8 8 0 0 1 11.312 11.312l-4 4a7.976 7.976 0 0 1-5.656 2.344zM724 140a8 8 0 0 1-5.656-13.656l4-4a8 8 0 0 1 11.312 11.312l-4 4a7.976 7.976 0 0 1-5.656 2.344zM724 220a8 8 0 0 1-5.656-13.656l4-4a8 8 0 0 1 11.312 11.312l-4 4a7.976 7.976 0 0 1-5.656 2.344zM764 212a7.968 7.968 0 0 1-2.536-0.408l-12-4a8 8 0 0 1 5.064-15.184l12 4a8 8 0 0 1-2.536 15.6z" fill="#647FA1" opacity=".65" p-id="39140"></path><path d="M755.992 328h-96l-12-72h120l-12 72z" fill="#CEE2EE" opacity=".65" p-id="39141"></path><path d="M695.984 328.008H680L672 256h15.984l8 72.008z" fill="#FFFFFF" opacity=".5" p-id="39142"></path><path d="M651.992 288a8 8 0 0 1-7.888-6.68l-4-24a8 8 0 0 1 15.784-2.64l4 24A8 8 0 0 1 651.992 288zM762.672 296a8 8 0 0 1-7.904-9.312l5.336-32a8 8 0 0 1 15.784 2.632l-5.336 32a8 8 0 0 1-7.888 6.68z" fill="#647FA1" opacity=".65" p-id="39143"></path><path d="M639.992 232h136v24h-136z" fill="#CEE2EE" opacity=".65" p-id="39144"></path><path d="M664 232h15.984v24H664z" fill="#FFFFFF" opacity=".5" p-id="39145"></path><path d="M776 272h-48a8 8 0 0 1 0-16h40v-16H648v16h16a8 8 0 0 1 0 16h-24a8 8 0 0 1-8-8v-32a8 8 0 0 1 8-8h136a8 8 0 0 1 8 8v32a8 8 0 0 1-8 8z" fill="#647FA1" opacity=".65" p-id="39146"></path><path d="M624 376v-48h352v48H624zM823.992 232h120v88h-120zM880 192h72v40h-136v-40h14.112A28.944 28.944 0 0 0 856 176" fill="#EEF6FF" opacity=".65" p-id="39147"></path><path d="M952 240h-136a8 8 0 0 1-8-8v-40a8 8 0 0 1 8-8h14.112a20.824 20.824 0 0 0 18.728-11.576 8 8 0 0 1 14.312 7.152 36.744 36.744 0 0 1-33.04 20.424H824v24h120v-24h-64a8 8 0 0 1 0-16h72a8 8 0 0 1 8 8v40a8 8 0 0 1-8 8zM904 272h-40a8 8 0 0 1 0-16h40a8 8 0 0 1 0 16z" fill="#647FA1" opacity=".65" p-id="39148"></path><path d="M944 312a8 8 0 0 1-8-8v-64h-104v48a8 8 0 0 1-16 0v-56a8 8 0 0 1 8-8h120a8 8 0 0 1 8 8v72a8 8 0 0 1-8 8zM944 400a8 8 0 0 1-7.248-11.392l0.88-1.88A32.584 32.584 0 0 1 967.048 368H968v-32h-24a8 8 0 0 1 0-16h32a8 8 0 0 1 8 8v48a8 8 0 0 1-8 8h-8.952a16.528 16.528 0 0 0-14.92 9.504l-0.88 1.888A8 8 0 0 1 944 400z" fill="#647FA1" opacity=".65" p-id="39149"></path><path d="M160.032 328h720.008a32 32 0 0 1 32 32v464H128.032V360a32 32 0 0 1 32-32z" fill="#F2F8FF" p-id="39150"></path><path d="M880.04 328H160.032a32 32 0 0 0-32 32v24a32 32 0 0 1 32-32h720.008a32 32 0 0 1 32 32v-24a32 32 0 0 0-32-32z" fill="#2C4B75" opacity=".2" p-id="39151"></path><path d="M880.04 328h-84.16l-496 496h612.16V360a32 32 0 0 0-32-32zM761.944 328H728l-496 496h33.944l496-496z" fill="#FFFFFF" opacity=".75" p-id="39152"></path><path d="M408 904h207.936v96H408z" fill="#EEF6FF" p-id="39153"></path><path d="M408.032 1008a8 8 0 0 1-8-8v-64a8 8 0 0 1 16 0v64a8 8 0 0 1-8 8zM616.032 984a8 8 0 0 1-8-8v-32a8 8 0 0 1 16 0v32a8 8 0 0 1-8 8z" fill="#647FA1" p-id="39154"></path><path d="M408.064 904.008H616v32H408.064z" fill="#7595B5" opacity=".3" p-id="39155"></path><path d="M648.032 1008h-272a8 8 0 0 1 0-16h272a8 8 0 0 1 0 16zM912.04 832a8 8 0 0 1-8-8V656a8 8 0 0 1 16 0v168a8 8 0 0 1-8 8zM128.024 832a8 8 0 0 1-8-8V584a8 8 0 1 1 16 0v240a8 8 0 0 1-8 8zM936 640a8.104 8.104 0 0 1-2.536-0.408 43.008 43.008 0 0 1-29.424-40.848v-51.328a8 8 0 0 1 16 0v51.328a27.024 27.024 0 0 0 18.496 25.664 8 8 0 0 1-2.536 15.6zM128.024 560a8 8 0 0 1-8-8v-32a8 8 0 1 1 16 0v32a8 8 0 0 1-8 8z m784.016-36.584a8 8 0 0 1-8-8V360a24.024 24.024 0 0 0-24-24H765.744a8 8 0 0 1 0-16h114.296a40.048 40.048 0 0 1 40 40v155.416a8 8 0 0 1-8 8zM128.024 448a8 8 0 0 1-8-8V360a40.048 40.048 0 0 1 40-40h189.72a8 8 0 0 1 0 16H160.024a24.024 24.024 0 0 0-24 24v80a8 8 0 0 1-8 8z m557.72-112h-32a8 8 0 0 1 0-16h32a8 8 0 0 1 0 16z m-64 0h-240a8 8 0 0 1 0-16h240a8 8 0 0 1 0 16z" fill="#647FA1" p-id="39156"></path><path d="M128.032 824.008h784.008v48a32 32 0 0 1-32 32H160.032a32 32 0 0 1-32-32v-48z" fill="#CEE2EE" p-id="39157"></path><path d="M880.04 880H160.032a32 32 0 0 1-32-32v24.008a32 32 0 0 0 32 32h720.008a32 32 0 0 0 32-32V848a32 32 0 0 1-32 32z" fill="#7595B5" opacity=".3" p-id="39158"></path><path d="M232 912.008h-71.976a40.048 40.048 0 0 1-40-40v-48a8 8 0 1 1 16 0v48a24.024 24.024 0 0 0 24 24H232a8 8 0 0 1 0 16zM255.992 936a8 8 0 0 1-6.648-12.44 61.776 61.776 0 0 1 51.488-27.552h213.496a8 8 0 0 1 0 16H300.832a45.8 45.8 0 0 0-38.176 20.432 8 8 0 0 1-6.664 3.56z m624.048-23.992H658.328a8 8 0 0 1 0-16h221.712a24.024 24.024 0 0 0 24-24v-48a8 8 0 0 1 16 0v48a40.048 40.048 0 0 1-40 40z m-253.712 0h-32a8 8 0 0 1 0-16h32a8 8 0 0 1 0 16z" fill="#647FA1" p-id="39159"></path><path d="M304.024 455.976a47.896 47.896 0 0 1-17.256 36.872c-8.328 6.944-18.576 3.4-30.264 3.4-11.344 0-22.24 3.8-30.448-2.776a48 48 0 1 1 77.968-37.496z" fill="#6E85A1" p-id="39160"></path><path d="M264.976 434.704a48.216 48.216 0 0 1-16.408-6.304c-1.376-1.328-0.432 6.16-1.68 6.72a12.4 12.4 0 0 0-7.92 15.312c0.352 1.92 0.64 3.792 0.96 5.56a3.992 3.992 0 0 0-0.96 2.96 19.112 19.112 0 0 0 2.128 7.768c0.224 4.744 4.296 8.584 4.296 12.2-0.008 1.472-0.008 2.888 0.048 4.224a2.424 2.424 0 0 1-2.032 2.48 41.52 41.52 0 0 0-18.112 7.216 47.952 47.952 0 0 0 61.464 0 41.52 41.52 0 0 0-18.112-7.216 2.424 2.424 0 0 1-2.032-2.48c0.056-1.336 0.056-2.752 0.048-4.224 0-3.384 4.072-7.456 4.288-12.2a19.112 19.112 0 0 0 2.128-7.76 3.992 3.992 0 0 0-0.96-2.968c0.328-1.76 0.616-3.64 0.96-5.56a12.544 12.544 0 0 0-8.104-15.728z" fill="#FFFFFF" p-id="39161"></path><path d="M352.032 407.96h207.96v143.976H352.032z" fill="#7FD4E3" p-id="39162"></path><path d="M608.056 407.96h207.968v143.976H608.056z" fill="#6E85A1" p-id="39163"></path><path d="M352.032 599.984h207.96v143.976H352.032z" fill="#AFC7D6" p-id="39164"></path><path d="M608.056 599.984h207.968v143.976H608.056z" fill="#FF8585" p-id="39165"></path><path d="M376.024 535.992a8.008 8.008 0 0 1-7.44-10.936c13.552-34.448 28.504-42.544 38.656-43.264a19.928 19.928 0 0 1 18.872 10.176 13.424 13.424 0 0 0 11.6 4.296c2.848-0.176 6.224-1.168 7.16-3.416 6.584-15.824 18.504-36.856 45.824-36.856a39.416 39.416 0 0 1 27.08 12.048c6.504 5.568 9.664 7.952 16.192 6.208a8 8 0 1 1 4.104 15.464 30.944 30.944 0 0 1-30.704-9.52A24.504 24.504 0 0 0 490.696 472c-14.072 0-23.072 7.824-31.056 27.008a23.12 23.12 0 0 1-20.944 13.232 28.688 28.688 0 0 1-26.496-12.352 3.8 3.8 0 0 0-3.824-2.128c-5.624 0.4-15.52 9.328-24.896 33.168a8 8 0 0 1-7.456 5.072zM400.648 719.992a37.808 37.808 0 0 1-31.872-21.6 8 8 0 0 1 14.488-6.8A21.704 21.704 0 0 0 400.648 704a3.64 3.64 0 0 0 1.296-0.152 30.712 30.712 0 0 0 1.416-5.984c1.592-8.616 4.536-24.672 28-24.856h0.432a37.632 37.632 0 0 1 34.288 19.376c4.184 6.032 5.616 7.568 9.032 7.568 3.688 0 5.616-7.728 7.928-18.632a68.544 68.544 0 0 1 11.824-30.592c16.96-19.952 42.872-10.632 43.952-10.224a8 8 0 0 1-5.568 15 24.96 24.96 0 0 0-26.2 5.592 57.152 57.152 0 0 0-8.36 23.552c-2.96 13.944-6.64 31.304-23.576 31.304a26.312 26.312 0 0 1-22.184-14.456 22.288 22.288 0 0 0-21.448-12.48c-10.24 0.08-10.864 3.496-12.376 11.744-1.24 6.72-3.536 19.24-18.456 19.24zM656.048 724.016c-17.04 0-21.928-11.824-27.112-24.336-1.216-2.936-2.544-6.152-4.16-9.6a8 8 0 1 1 14.504-6.776c1.72 3.688 3.144 7.12 4.44 10.256 4.952 11.96 6.416 14.16 11.08 14.424a73.024 73.024 0 0 0 3.592-15.36c2.68-15.88 6.352-37.616 25.904-37.616 14.896 0 22.064 11.472 26.808 19.064 0.848 1.352 1.984 3.168 2.904 4.4a28.88 28.88 0 0 0 3.008-3.392 19.048 19.048 0 0 1 13.816-8.048c10.2-0.696 18.976 7.624 26.68 15.008a65.304 65.304 0 0 0 9.864 8.36 23.12 23.12 0 0 0 2.216-5.792 117.36 117.36 0 0 0 3.344-37.44c-0.368-9.68-0.656-17.32 4.744-22.672a19.464 19.464 0 0 1 14.744-4.488 8 8 0 0 1 7.6 8.376 8.144 8.144 0 0 1-8.384 7.6 13.24 13.24 0 0 0-2.6 0.08 59.84 59.84 0 0 0-0.112 10.48 131.312 131.312 0 0 1-3.896 42.24c-0.992 3.68-4.024 14.896-13.232 17.464-9.408 2.584-17.52-5.152-25.36-12.656-4.224-4.048-11.096-10.776-14.448-10.6-0.56 0.04-1.44 0.76-2.344 1.92a21.552 21.552 0 0 1-16.72 10.4c-7.664-0.4-11.776-6.96-15.392-12.76-4.488-7.184-7.616-11.544-13.24-11.544-5.576 0-7.888 10.992-10.128 24.28-2.272 13.464-4.848 28.728-18.12 28.728zM632.04 527.904a8.008 8.008 0 0 1-7.96-8.848c5.12-47.88 7.784-56.576 29.576-58.76l1.176-0.12c13.776-1.472 17.288 13.08 19.848 23.664 3.432 14.208 6.072 20.64 12.656 21.2 6.096 0.528 10.064-5.84 15.888-16.384 6.272-11.36 15.752-28.504 34.8-20.144a33.056 33.056 0 0 1 19.36 28.072c1.456 7.92 1.464 7.92 6.616 7.36 6.592-0.704 8.64-12.96 10.456-27.696 1.488-12.072 2.664-21.6 9.232-26.144a12.528 12.528 0 0 1 10.216-1.784 8 8 0 0 1-1.16 15.744 94.296 94.296 0 0 0-2.408 14.144c-2.056 16.68-4.88 39.52-24.632 41.648-19.928 2.112-22.608-12.512-24.056-20.376-1.48-8.024-2.76-13.112-10.056-16.32-4.296-1.88-6.36-1.264-14.36 13.224-6.072 11-14.368 26.096-31.272 24.6-19.168-1.648-23.784-20.744-26.832-33.384a56.912 56.912 0 0 0-3.52-11.416l-0.352 0.032c-9.2 0.92-10.608 1.064-15.272 44.544a8 8 0 0 1-7.944 7.144z" fill="#FFFFFF" p-id="39166"></path><path d="M240.024 751.984h-32a8 8 0 0 1 0-16h32a8 8 0 1 1 0 16zM304.024 559.968h-96a8 8 0 0 1 0-16h96a8 8 0 0 1 0 16zM304.024 607.968h-96a8 8 0 0 1 0-16h96a8 8 0 0 1 0 16zM304.024 655.976h-96a8 8 0 0 1 0-16h96a8 8 0 0 1 0 16zM304.024 751.984h-32a8 8 0 0 1 0-16h32a8 8 0 0 1 0 16z" fill="#647FA1" p-id="39167"></path></svg>