<?xml version="1.0" standalone="no"?><!DOCTYPE svg PUBLIC "-//W3C//DTD SVG 1.1//EN" "http://www.w3.org/Graphics/SVG/1.1/DTD/svg11.dtd"><svg t="1582361856008" class="icon" viewBox="0 0 1024 1024" version="1.1" xmlns="http://www.w3.org/2000/svg" p-id="99252" xmlns:xlink="http://www.w3.org/1999/xlink" width="200" height="200"><defs><style type="text/css"></style></defs><path d="M915.911111 204.8c-39.822222 11.377778-73.955556 17.066667-113.777778 17.066667-102.4 0-199.111111-28.444444-278.755555-79.644445H512c-79.644444 51.2-176.355556 79.644444-278.755556 79.644445h-11.377777v568.888889c17.066667 17.066667 34.133333 34.133333 51.2 56.888888 45.511111 45.511111 102.4 91.022222 153.6 125.155556 22.755556 11.377778 39.822222 22.755556 56.888889 34.133333 11.377778 5.688889 22.755556 5.688889 28.444444 0 17.066667-11.377778 39.822222-22.755556 56.888889-34.133333 56.888889-34.133333 113.777778-79.644444 159.288889-125.155556 56.888889-51.2 96.711111-102.4 136.533333-147.911111 34.133333-39.822222 51.2-62.577778 51.2-96.711111V199.111111v5.688889z" fill="#FCC59F" p-id="99253"></path><path d="M665.6 648.533333H392.533333V512c0-17.066667 11.377778-28.444444 28.444445-28.444444h244.622222v164.977777zM568.888889 460.8H477.866667c-5.688889 0-11.377778-5.688889-11.377778-11.377778V329.955556c0-34.133333 28.444444-56.888889 56.888889-56.888889 34.133333 0 56.888889 28.444444 56.888889 56.888889v119.466666c0 5.688889-5.688889 11.377778-11.377778 11.377778z" fill="#E5955E" p-id="99254"></path><path d="M506.311111 1024c-17.066667 0-28.444444-5.688889-39.822222-11.377778-17.066667-11.377778-39.822222-22.755556-62.577778-39.822222-56.888889-39.822222-113.777778-85.333333-159.288889-130.844444-56.888889-56.888889-102.4-113.777778-136.533333-164.977778-34.133333-56.888889-51.2-108.088889-51.2-159.288889V85.333333c0-11.377778 5.688889-17.066667 11.377778-22.755555 5.688889-5.688889 17.066667-5.688889 28.444444-5.688889l45.511111 11.377778c28.444444 11.377778 62.577778 17.066667 91.022222 17.066666 85.333333 0 176.355556-22.755556 244.622223-68.266666l17.066666-11.377778c11.377778-5.688889 22.755556-5.688889 34.133334 0l17.066666 11.377778c68.266667 45.511111 153.6 68.266667 244.622223 68.266666 28.444444 0 62.577778-5.688889 91.022222-17.066666l45.511111-11.377778c11.377778 0 17.066667 0 22.755555 5.688889s17.066667 11.377778 17.066667 22.755555v432.355556c0 45.511111-17.066667 102.4-51.2 159.288889-34.133333 51.2-79.644444 113.777778-136.533333 164.977778-51.2 45.511111-108.088889 96.711111-164.977778 130.844444-22.755556 17.066667-45.511111 28.444444-62.577778 39.822222-17.066667 5.688889-28.444444 11.377778-45.511111 11.377778zM113.777778 125.155556v398.222222c0 39.822222 17.066667 85.333333 45.511111 130.844444 28.444444 51.2 73.955556 102.4 125.155555 153.6 45.511111 45.511111 102.4 91.022222 153.6 125.155556 17.066667 11.377778 39.822222 22.755556 56.888889 34.133333 5.688889 0 17.066667 0 28.444445-5.688889 17.066667-11.377778 39.822222-22.755556 56.888889-34.133333 56.888889-34.133333 108.088889-79.644444 159.288889-125.155556 56.888889-51.2 96.711111-108.088889 130.844444-153.6 28.444444-45.511111 45.511111-91.022222 45.511111-125.155555v-398.222222h-11.377778c-39.822222 11.377778-73.955556 17.066667-108.088889 17.066666-96.711111 0-199.111111-28.444444-273.066666-79.644444H506.311111C426.666667 113.777778 329.955556 142.222222 233.244444 142.222222c-34.133333 0-73.955556-5.688889-108.088888-17.066666H113.777778z" fill="#684017" p-id="99255"></path><path d="M654.222222 403.911111H625.777778V312.888889c0-62.577778-51.2-113.777778-113.777778-113.777778s-113.777778 51.2-113.777778 113.777778v91.022222h-28.444444c-34.133333 0-56.888889 22.755556-56.888889 56.888889v170.666667c0 34.133333 22.755556 56.888889 56.888889 56.888889h284.444444c34.133333 0 56.888889-22.755556 56.888889-56.888889v-170.666667c0-28.444444-22.755556-56.888889-56.888889-56.888889zM455.111111 312.888889c0-34.133333 22.755556-56.888889 56.888889-56.888889s56.888889 22.755556 56.888889 56.888889v91.022222H455.111111V312.888889z m199.111111 318.577778h-284.444444v-170.666667h284.444444v170.666667z" fill="#684017" p-id="99256"></path><path d="M557.511111 534.755556c0-22.755556-22.755556-39.822222-45.511111-39.822223s-39.822222 17.066667-39.822222 39.822223c0 17.066667 5.688889 28.444444 22.755555 34.133333v11.377778c0 11.377778 11.377778 22.755556 22.755556 22.755555s22.755556-11.377778 22.755555-22.755555V568.888889c5.688889-5.688889 17.066667-17.066667 17.066667-34.133333z" fill="#684017" p-id="99257"></path></svg>