<?xml version="1.0" standalone="no"?><!DOCTYPE svg PUBLIC "-//W3C//DTD SVG 1.1//EN" "http://www.w3.org/Graphics/SVG/1.1/DTD/svg11.dtd"><svg t="1582361847947" class="icon" viewBox="0 0 1024 1024" version="1.1" xmlns="http://www.w3.org/2000/svg" p-id="99116" xmlns:xlink="http://www.w3.org/1999/xlink" width="200" height="200"><defs><style type="text/css"></style></defs><path d="M491.8 622.92q12.5-16 12.53-42.85 0-28.07-12.18-44.36t-34.33-16.29q-22.5 0-35.43 16.7t-12.91 43.27q0 26.21 12.64 42.84t34.68 16.64q22.5 0 35-15.95zM426 579.39z" fill="#9777A9" p-id="99117"></path><path d="M832.66 64.28H303c-52.25 0-95 42.75-95 95v206.64H48.84a47.64 47.64 0 0 0-47.5 47.5V746a47.64 47.64 0 0 0 47.5 47.46H208v71.26c0 52.25 42.75 95 95 95h624.66c52.25 0 95-42.75 95-95V259zM177.35 598.41q0 35.61-16.41 54.63t-47 19a67.16 67.16 0 0 1-25.17-4.64v-36a36.7 36.7 0 0 0 22.73 7.54q27.6 0 27.6-41.87V489.28h38.27z m655.31-467.63L956.17 259h-99.76a23.8 23.8 0 0 1-23.75-23.75z m-613.52 531.3v-38.39q21.69 18 49.29 18 15.66 0 23.54-5.39t7.89-13.86q0-7.31-6.26-13.8T260.58 591q-42.1-17.86-42.1-52 0-25.05 19.08-38.91t50.51-13.86q26.33 0 44.19 6.84v36q-18.09-12.29-42.33-12.29-14.15 0-22.62 5.16t-8.47 13.86q0 7 5.8 12.82t28.65 15.83q26.79 11.48 36.82 24.24t10 30.39q0 25.86-18.32 39.43t-52.07 13.57q-30.86 0-50.58-10z m756 131.38v71.3a47.64 47.64 0 0 1-47.5 47.5H303a47.64 47.64 0 0 1-47.5-47.5V793.5h529.66a47.64 47.64 0 0 0 47.5-47.5V413.42a47.64 47.64 0 0 0-47.5-47.5H255.51V159.27a47.64 47.64 0 0 1 47.5-47.5h482.14v123.51c0 40.38 30.88 71.26 71.26 71.26h118.75z m-605.93-212q0-42.21 24.65-68.72T459 486.26q38.5 0 62 25.63t23.49 65.88q0 42-24.41 68.14t-64 26.15q-38.62 0-62.74-25.34t-24.1-65.24z m339.24 10.25V489.28h36.3v179.63h-39.2l-76.08-116.2A135.76 135.76 0 0 1 621 538.1h-0.58q1 9.28 1 28.65v102.17h-36.3V489.28h41.75l73.3 113q7.31 11.25 8.93 14.27h0.58q-1.2-6.49-1.2-24.82z" fill="#9777A9" p-id="99118"></path><path d="M409.48 579.39v-0.01 0.01z" fill="#FFFFFF" p-id="99119"></path></svg>