<?xml version="1.0" standalone="no"?><!DOCTYPE svg PUBLIC "-//W3C//DTD SVG 1.1//EN" "http://www.w3.org/Graphics/SVG/1.1/DTD/svg11.dtd"><svg t="1582361859649" class="icon" viewBox="0 0 1024 1024" version="1.1" xmlns="http://www.w3.org/2000/svg" p-id="99390" xmlns:xlink="http://www.w3.org/1999/xlink" width="200" height="200"><defs><style type="text/css"></style></defs><path d="M882.336 753.44L536.032 953.6a47.776 47.776 0 0 1-48 0L141.664 753.44a48 48 0 0 1-24.032-41.376V311.936a47.488 47.488 0 0 1 24.032-41.376L487.968 70.4a47.776 47.776 0 0 1 48 0l346.368 200.16a48 48 0 0 1 24.032 41.376v400a50.24 50.24 0 0 1-24.032 41.376z" fill="#8D6748" p-id="99391"></path><path d="M728.704 415.808a20.896 20.896 0 0 0-20.832-20.832H316.128a20.896 20.896 0 0 0-20.832 20.832c0 70.848 10.432 314.656 114.592 433.408a18.912 18.912 0 0 0 14.592 6.4h175.04a18.912 18.912 0 0 0 14.592-6.4c104.192-116.704 114.592-360.48 114.592-433.408z m-154.208 379.232h-122.912a18.912 18.912 0 0 1-14.592-6.4c-70.848-83.2-79.168-250.048-81.28-308.384a20.896 20.896 0 0 1 20.832-20.832h275.2a20.896 20.896 0 0 1 20.832 20.832c0 58.336-10.432 222.944-81.28 308.384a27.712 27.712 0 0 1-16.8 6.4zM551.584 353.28a86.912 86.912 0 0 0 29.184-122.88c-27.104-41.6-39.584-77.088-29.184-91.68-27.104 33.344-72.928 68.768-22.912 143.776a117.536 117.536 0 0 1 22.912 70.784zM468.256 359.552a58.592 58.592 0 0 0 18.752-83.2c-18.752-27.104-27.104-52.096-18.752-60.416-18.752 22.912-48 45.856-14.592 97.92a84.224 84.224 0 0 1 14.592 45.696z" fill="#FFFFFF" p-id="99392"></path><path d="M639.104 601.248a334.496 334.496 0 0 1-60.416 162.528 18.016 18.016 0 0 1-12.512 6.4h-104.192a14.848 14.848 0 0 1-12.512-6.4 298.72 298.72 0 0 1-52.096-116.704s120.864 16.672 189.632-8.32c50.016-18.752 52.096-37.504 52.096-37.504z" fill="#FFFFFF" p-id="99393"></path></svg>