<?xml version="1.0" standalone="no"?><!DOCTYPE svg PUBLIC "-//W3C//DTD SVG 1.1//EN" "http://www.w3.org/Graphics/SVG/1.1/DTD/svg11.dtd"><svg t="1582361863728" class="icon" viewBox="0 0 1024 1024" version="1.1" xmlns="http://www.w3.org/2000/svg" p-id="99526" xmlns:xlink="http://www.w3.org/1999/xlink" width="200" height="200"><defs><style type="text/css"></style></defs><path d="M417.344 131.008L201.344 505.152v-4.224L1.728 442.752l4.096-6.912 195.52-331.968 2.048 1.984h193.6l20.352 25.152z" fill="#F4E67F" p-id="99527"></path><path d="M642.112 105.856l-440.768 763.52V500.928l-19.52-5.632 220.8-382.528 109.312 135.488 115.072-142.4h15.104z" fill="#74EB74" p-id="99528"></path><path d="M201.344 795.776l330.176-571.648 95.488-118.272h193.472L365.184 920.128h-163.84v-124.352z" fill="#7EFFF8" p-id="99529"></path><path d="M569.152 920.128h-235.52l470.144-814.272h16.704l112.128 184.768-363.456 629.504z" fill="#92D3FF" p-id="99530"></path><path d="M803.136 920.128H567.488l364.288-630.976 90.496 153.6-199.616 58.176v385.344l-19.52 33.856z" fill="#ECA9FC" p-id="99531"></path></svg>