<?xml version="1.0" standalone="no"?><!DOCTYPE svg PUBLIC "-//W3C//DTD SVG 1.1//EN" "http://www.w3.org/Graphics/SVG/1.1/DTD/svg11.dtd"><svg t="1595934566250" class="icon" viewBox="0 0 1239 1024" version="1.1" xmlns="http://www.w3.org/2000/svg" p-id="5633" xmlns:xlink="http://www.w3.org/1999/xlink" width="241.9921875" height="200"><defs><style type="text/css"></style></defs><path d="M161.684211 933.456842a456.737684 85.342316 0 1 0 913.475368 0 456.737684 85.342316 0 1 0-913.475368 0Z" fill="#F5F5F5" fill-opacity=".8" p-id="5634"></path><path d="M983.808 682.738526L822.629053 484.372211c-7.733895-9.337263-19.038316-14.989474-30.942316-14.989474h-346.543158c-11.897263 0-23.201684 5.652211-30.935579 14.989474L253.035789 682.738526v103.632842h730.778948V682.738526z" fill="#AEB8C2" p-id="5635"></path><path d="M389.591579 213.355789h457.653895a26.947368 26.947368 0 0 1 26.947368 26.947369v628.843789a26.947368 26.947368 0 0 1-26.947368 26.947369H389.591579a26.947368 26.947368 0 0 1-26.947368-26.947369V240.303158a26.947368 26.947368 0 0 1 26.947368-26.947369z" fill="#F5F5F7" p-id="5636"></path><path d="M449.199158 280.407579h338.438737a13.473684 13.473684 0 0 1 13.473684 13.473684V462.012632a13.473684 13.473684 0 0 1-13.473684 13.473684H449.199158a13.473684 13.473684 0 0 1-13.473684-13.473684V293.881263a13.473684 13.473684 0 0 1 13.473684-13.473684z m1.765053 268.220632h334.908631a15.238737 15.238737 0 1 1 0 30.477473H450.964211a15.238737 15.238737 0 0 1 0-30.477473z m0 79.245473h334.908631a15.238737 15.238737 0 1 1 0 30.484211H450.964211a15.238737 15.238737 0 0 1 0-30.484211z m531.354947 293.066105c-5.221053 20.688842-23.558737 36.109474-45.372632 36.109474H299.890526c-21.813895 0-40.151579-15.427368-45.365894-36.109474a49.239579 49.239579 0 0 1-1.495579-12.058947V682.745263h177.30021c19.584 0 35.368421 16.491789 35.368421 36.513684v0.269474c0 20.015158 15.966316 36.176842 35.550316 36.176842h234.341053c19.584 0 35.550316-16.309895 35.550315-36.331789V719.292632c0-20.021895 15.784421-36.554105 35.368421-36.554106h177.300211v226.149053a49.381053 49.381053 0 0 1-1.488842 12.05221z" fill="#DCE0E6" p-id="5637"></path><path d="M1004.604632 224.282947l-46.012632 17.852632a6.736842 6.736842 0 0 1-8.872421-8.286316l13.049263-41.815579c-17.441684-19.833263-27.681684-44.018526-27.681684-70.117052C935.087158 54.581895 1003.250526 0 1087.339789 0 1171.408842 0 1239.578947 54.581895 1239.578947 121.916632c0 67.334737-68.163368 121.916632-152.245894 121.916631-30.504421 0-58.906947-7.181474-82.728421-19.550316z" fill="#DCE0E6" p-id="5638"></path><path d="M1128.117895 124.968421a19.193263 18.964211 0 1 0 38.386526 0 19.193263 18.964211 0 1 0-38.386526 0Z" fill="#FFFFFF" p-id="5639"></path><path d="M1046.554947 141.561263H1008.168421L1027.691789 108.375579zM1070.544842 108.375579h33.583158V141.561263H1070.544842z" fill="#FFFFFF" p-id="5640"></path></svg>